<svg xmlns="http://www.w3.org/2000/svg" height="40" viewBox="0 96 960 960" width="40"><path d="M153.333 848q-22.1 0-37.716-15.073Q100 817.854 100 795.26q0-22.593 15.617-37.926Q131.233 742 153.333 742h654.334q21.45 0 37.058 15.651 15.608 15.65 15.608 37.343 0 23.094-15.608 38.05Q829.117 848 807.667 848H153.333Zm0-218.667q-22.1 0-37.716-15.773Q100 597.787 100 576.094q0-23.094 15.617-37.927 15.616-14.833 37.716-14.833h654.334q21.45 0 37.058 14.95t15.608 37.544q0 22.593-15.608 38.049t-37.058 15.456H153.333Zm0-219.333q-22.1 0-37.716-15.773Q100 378.454 100 356.76q0-23.093 15.617-38.26 15.616-15.166 37.716-15.166h654.334q21.45 0 37.058 15.283 15.608 15.284 15.608 37.877 0 22.594-15.608 38.05Q829.117 410 807.667 410H153.333Z"/></svg>