<svg xmlns="http://www.w3.org/2000/svg" height="40" viewBox="0 96 960 960" width="40"><path d="M156.666 926q-43.424 0-74.712-31.788Q50.667 862.425 50.667 820V332q0-42.7 31.287-74.683 31.288-31.983 74.712-31.983h646.668q43.699 0 75.182 31.983Q910 289.3 910 332v488q0 42.425-31.484 74.212Q847.033 926 803.334 926H156.666ZM480 626.999q7.333 0 13.708-1.833t15.051-7.2l278.352-184.383q6.223-3.251 11.223-11.584 5-8.334 5-19.565 0-19.55-19.167-32.326-19.166-12.775-37.833.891L480 544.667 214.999 370.999q-19-12-38.666-1.333-19.667 10.666-19.667 32.56 0 10.909 5.334 19.008 5.333 8.098 11.792 12.475l277.463 184.258q8.662 5.366 15.037 7.199 6.375 1.833 13.708 1.833Z"/></svg>