<svg xmlns="http://www.w3.org/2000/svg" height="40" viewBox="0 96 960 960" width="40"><path d="M798.333 963q-130.666 0-257.5-61.667Q414 839.666 314.167 740.166T152.667 513Q91.001 385.333 91.001 256q0-29.333 20.166-50 20.167-20.666 50.5-20.666H310q33.999 0 54.833 16.666 20.833 16.667 27.166 48.667l27 114q4.334 28.666-1.666 49-6 20.333-23.334 35.333l-104 94Q334 612.334 389.167 666.667q55.167 54.334 120.167 92.667l102-100Q629 641.001 650.5 634.168q21.5-6.834 48.167-.5l104.999 24.999Q836 667.001 852.5 687.834q16.5 20.833 16.5 52.167v151.332q0 31-20.167 51.333Q828.666 963 798.333 963Z"/></svg>